<mxfile host="app.diagrams.net" modified="2020-12-15T21:43:08.602Z" agent="5.0 (Windows NT 10.0; Win64; x64) AppleWebKit/537.36 (KHTML, like Gecko) Chrome/87.0.4280.88 Safari/537.36" etag="_gLxCNw3qkXs6wD_xcwP" version="14.0.1" type="github">
  <diagram id="W3Nua4-vTizeOVp9UflG" name="Page-1">
    <mxGraphModel dx="813" dy="403" grid="1" gridSize="10" guides="1" tooltips="1" connect="1" arrows="1" fold="1" page="1" pageScale="1" pageWidth="827" pageHeight="1169" math="0" shadow="0">
      <root>
        <mxCell id="0" />
        <mxCell id="1" parent="0" />
        <mxCell id="_Ng7tLNOZAPoexdFJnFL-3" style="edgeStyle=orthogonalEdgeStyle;rounded=0;orthogonalLoop=1;jettySize=auto;html=1;exitX=0.5;exitY=1;exitDx=0;exitDy=0;" edge="1" parent="1" source="_Ng7tLNOZAPoexdFJnFL-1" target="_Ng7tLNOZAPoexdFJnFL-2">
          <mxGeometry relative="1" as="geometry" />
        </mxCell>
        <mxCell id="_Ng7tLNOZAPoexdFJnFL-1" value="" style="ellipse;fillColor=#000000;strokeColor=none;" vertex="1" parent="1">
          <mxGeometry x="160" y="40" width="30" height="30" as="geometry" />
        </mxCell>
        <mxCell id="_Ng7tLNOZAPoexdFJnFL-5" style="edgeStyle=orthogonalEdgeStyle;rounded=0;orthogonalLoop=1;jettySize=auto;html=1;exitX=0.5;exitY=1;exitDx=0;exitDy=0;" edge="1" parent="1" source="_Ng7tLNOZAPoexdFJnFL-2" target="_Ng7tLNOZAPoexdFJnFL-4">
          <mxGeometry relative="1" as="geometry" />
        </mxCell>
        <mxCell id="_Ng7tLNOZAPoexdFJnFL-2" value="Provide username&lt;br&gt;and password" style="html=1;align=center;verticalAlign=top;rounded=1;absoluteArcSize=1;arcSize=10;dashed=0;" vertex="1" parent="1">
          <mxGeometry x="105" y="120" width="140" height="40" as="geometry" />
        </mxCell>
        <mxCell id="_Ng7tLNOZAPoexdFJnFL-8" value="[Valid credentials]" style="edgeStyle=orthogonalEdgeStyle;rounded=0;orthogonalLoop=1;jettySize=auto;html=1;exitX=0.5;exitY=1;exitDx=0;exitDy=0;" edge="1" parent="1" source="_Ng7tLNOZAPoexdFJnFL-4" target="_Ng7tLNOZAPoexdFJnFL-7">
          <mxGeometry x="-0.5" relative="1" as="geometry">
            <mxPoint as="offset" />
          </mxGeometry>
        </mxCell>
        <mxCell id="_Ng7tLNOZAPoexdFJnFL-10" value="[Invalid&lt;br&gt;credentials]" style="edgeStyle=orthogonalEdgeStyle;rounded=0;orthogonalLoop=1;jettySize=auto;html=1;exitX=1;exitY=0.5;exitDx=0;exitDy=0;" edge="1" parent="1" source="_Ng7tLNOZAPoexdFJnFL-4" target="_Ng7tLNOZAPoexdFJnFL-6">
          <mxGeometry relative="1" as="geometry" />
        </mxCell>
        <mxCell id="_Ng7tLNOZAPoexdFJnFL-4" value="" style="rhombus;" vertex="1" parent="1">
          <mxGeometry x="160" y="230" width="30" height="30" as="geometry" />
        </mxCell>
        <mxCell id="_Ng7tLNOZAPoexdFJnFL-11" style="edgeStyle=orthogonalEdgeStyle;rounded=0;orthogonalLoop=1;jettySize=auto;html=1;exitX=1;exitY=0.5;exitDx=0;exitDy=0;" edge="1" parent="1" source="_Ng7tLNOZAPoexdFJnFL-6" target="_Ng7tLNOZAPoexdFJnFL-9">
          <mxGeometry relative="1" as="geometry" />
        </mxCell>
        <mxCell id="_Ng7tLNOZAPoexdFJnFL-6" value="Display error&lt;br&gt;message" style="html=1;align=center;verticalAlign=top;rounded=1;absoluteArcSize=1;arcSize=10;dashed=0;" vertex="1" parent="1">
          <mxGeometry x="290" y="225" width="140" height="40" as="geometry" />
        </mxCell>
        <mxCell id="_Ng7tLNOZAPoexdFJnFL-7" value="Display logged in&lt;br&gt;startpage" style="html=1;align=center;verticalAlign=top;rounded=1;absoluteArcSize=1;arcSize=10;dashed=0;" vertex="1" parent="1">
          <mxGeometry x="105" y="340" width="140" height="40" as="geometry" />
        </mxCell>
        <mxCell id="_Ng7tLNOZAPoexdFJnFL-12" value="[reties &amp;lt; 3]" style="edgeStyle=orthogonalEdgeStyle;rounded=0;orthogonalLoop=1;jettySize=auto;html=1;exitX=0.5;exitY=0;exitDx=0;exitDy=0;" edge="1" parent="1" source="_Ng7tLNOZAPoexdFJnFL-9" target="_Ng7tLNOZAPoexdFJnFL-2">
          <mxGeometry x="-0.8235" relative="1" as="geometry">
            <Array as="points">
              <mxPoint x="495" y="140" />
            </Array>
            <mxPoint as="offset" />
          </mxGeometry>
        </mxCell>
        <mxCell id="_Ng7tLNOZAPoexdFJnFL-14" value="[retries &amp;gt;= 3]" style="edgeStyle=orthogonalEdgeStyle;rounded=0;orthogonalLoop=1;jettySize=auto;html=1;exitX=1;exitY=0.5;exitDx=0;exitDy=0;" edge="1" parent="1" source="_Ng7tLNOZAPoexdFJnFL-9" target="_Ng7tLNOZAPoexdFJnFL-13">
          <mxGeometry relative="1" as="geometry" />
        </mxCell>
        <mxCell id="_Ng7tLNOZAPoexdFJnFL-9" value="" style="rhombus;" vertex="1" parent="1">
          <mxGeometry x="480" y="230" width="30" height="30" as="geometry" />
        </mxCell>
        <mxCell id="_Ng7tLNOZAPoexdFJnFL-15" style="edgeStyle=orthogonalEdgeStyle;rounded=0;orthogonalLoop=1;jettySize=auto;html=1;exitX=0.5;exitY=0;exitDx=0;exitDy=0;" edge="1" parent="1" source="_Ng7tLNOZAPoexdFJnFL-13" target="_Ng7tLNOZAPoexdFJnFL-2">
          <mxGeometry relative="1" as="geometry">
            <Array as="points">
              <mxPoint x="680" y="140" />
            </Array>
          </mxGeometry>
        </mxCell>
        <mxCell id="_Ng7tLNOZAPoexdFJnFL-13" value="Display password&lt;br&gt;reset option" style="html=1;align=center;verticalAlign=top;rounded=1;absoluteArcSize=1;arcSize=10;dashed=0;" vertex="1" parent="1">
          <mxGeometry x="610" y="225" width="140" height="40" as="geometry" />
        </mxCell>
      </root>
    </mxGraphModel>
  </diagram>
</mxfile>
